<mxfile host="app.diagrams.net" modified="2024-01-14T17:38:56.525Z" agent="Mozilla/5.0 (Macintosh; Intel Mac OS X 10_15_7) AppleWebKit/537.36 (KHTML, like Gecko) Chrome/119.0.0.0 Safari/537.36" version="22.1.15" etag="0TeQfx4w4zHlgRIWK8LN" type="github">
  <diagram name="Page-1" id="kavXktHOMcOE_U_9HG0d">
    <mxGraphModel>
      <root>
        <mxCell id="0" />
        <mxCell id="1" parent="0" />
      </root>
    </mxGraphModel>
  </diagram>
</mxfile>
